<svg xmlns="http://www.w3.org/2000/svg" xmlns:xlink="http://www.w3.org/1999/xlink" viewBox="0 0 147 24" version="1.1">
    <!-- Generator: Sketch 63.1 (92452) - https://sketch.com -->
    <title>Logo/Block</title>
    <desc>Created with Sketch.</desc>
    <g id="[A]首頁" stroke="none" stroke-width="1" fill="none" fill-rule="evenodd">
        <g id="404-1440" transform="translate(-132.000000, -24.000000)">
            <g id="Logo/Block" transform="translate(132.000000, 24.000000)">
                <g id="Logo" transform="translate(0.730469, 0.000000)">
                    <g id="Group" transform="translate(81.929328, 3.141060)" fill="#1F2839" fill-rule="nonzero">
                        <path d="M3.42899104,2.48667289 L4.68541524,2.48667289 L4.68541524,1.2825997 C4.68541524,1.09937117 4.65923973,0.732914115 4.60688872,0.157053025 L6.41299851,0.418808066 C6.75328006,0.471159074 6.93650859,0.602036595 6.93650859,0.785265124 C6.93650859,1.02084466 6.67475355,1.23024869 6.17741897,1.38730172 L6.17741897,2.5128484 L11.7266258,2.5128484 L11.7266258,1.30877521 C11.7266258,1.12554668 11.7004503,0.759089619 11.6742748,0.183228529 L13.4542091,0.44498357 C13.7944907,0.497334578 14.0038947,0.628212099 14.0038947,0.811440628 C14.0038947,1.04702016 13.7421397,1.2564242 13.2448051,1.41347722 L13.2448051,2.5390239 L14.8153353,2.5390239 L15.8623555,1.33495071 L17.2758327,2.38197087 C17.4328857,2.5128484 17.5114123,2.64372592 17.5114123,2.77460344 C17.5114123,2.98400747 17.4067102,3.08870949 17.2234817,3.08870949 L13.2448051,3.08870949 L13.2448051,9.44935699 L15.3388454,9.44935699 L16.4643921,8.19293279 L17.9302203,9.26612846 C18.0872733,9.42318148 18.1657999,9.554059 18.1657999,9.68493652 C18.1657999,9.86816505 18.0610978,9.97286707 17.8778693,9.97286707 L12.1454339,9.97286707 C12.6427685,10.3654996 13.1662786,10.7319567 13.6897887,11.0198872 C14.2918252,11.4125198 14.9462129,11.7004503 15.6529515,11.9622054 C16.4120411,12.2501359 17.3281837,12.4857155 18.4013794,12.6951195 L18.2443264,13.2186296 C17.9825713,13.2186296 17.7731673,13.2448051 17.5899388,13.2709806 C17.4067102,13.3495071 17.1187797,13.6897887 16.8308491,14.3441763 C16.150286,14.0824212 15.4435474,13.6897887 14.7106333,13.1662786 C13.9515437,12.6951195 13.2971561,12.0930829 12.668944,11.4125198 C12.2763114,11.0460627 11.8836789,10.5749037 11.4910463,9.99904257 L7.25061464,9.99904257 C6.64857805,10.8104832 6.04654145,11.4648708 5.47068036,11.9883809 C4.71159074,12.668944 3.84779911,13.2709806 2.87930545,13.7421397 C2.06786483,14.1609477 1.2564242,14.5274048 0.418808066,14.8153353 L0.104702016,14.4488783 C0.654387603,14.2132987 1.2564242,13.8991927 1.8846363,13.4803846 C2.72225243,12.930699 3.42899104,12.3286624 4.03102763,11.6742748 C4.52836221,11.1769403 4.97334578,10.6272547 5.36597834,10.0252181 L2.64372592,10.0252181 C1.9369873,10.0252181 1.23024869,10.0775691 0.523510082,10.1822711 L0.157053025,9.26612846 C0.968493652,9.42318148 1.77993428,9.501708 2.64372592,9.501708 L4.65923973,9.501708 L4.65923973,2.98400747 L3.40281554,2.98400747 C2.69607692,2.98400747 1.98933831,3.03635848 1.2825997,3.14106049 L0.916142644,2.22491785 C1.77993428,2.40814638 2.59137491,2.48667289 3.42899104,2.48667289 Z M7.25061464,13.3495071 L8.37616132,13.3495071 L8.37616132,12.0145564 C8.37616132,11.8313279 8.34998581,11.4648708 8.29763481,10.8890097 L10.0775691,11.1507648 C10.4178506,11.2031158 10.6272547,11.3078178 10.6272547,11.4910463 C10.6272547,11.7266258 10.3654996,11.9360299 9.86816505,12.0930829 L9.86816505,13.3495071 L11.2031158,13.3495071 L12.2501359,12.2239604 L13.5850866,13.1924541 C13.7421397,13.3233316 13.8206662,13.4542091 13.8206662,13.5850866 C13.8206662,13.7683152 13.7159642,13.8730172 13.5065601,13.8730172 L9.84198955,13.8730172 L9.84198955,16.6476206 L14.7106333,16.6476206 L15.83618,15.3650209 L17.3020082,16.4643921 C17.4590612,16.5952696 17.5637633,16.7261471 17.5637633,16.8832002 C17.5637633,17.0664287 17.4590612,17.1711307 17.2496572,17.1711307 L3.53369306,17.1711307 C2.82695444,17.1711307 2.12021583,17.2234817 1.41347722,17.3281837 L1.04702016,16.4382166 C1.85846079,16.5952696 2.66990142,16.6737961 3.53369306,16.6737961 L8.32381031,16.6737961 L8.32381031,13.8468417 L7.19826363,13.8468417 C6.49152502,13.8468417 5.78478641,13.8991927 5.1042233,14.0038947 L4.71159074,13.0877521 C5.60155788,13.2709806 6.43917401,13.3495071 7.25061464,13.3495071 Z M11.7528013,4.71159074 L11.7528013,2.98400747 L6.20359448,2.98400747 L6.20359448,4.71159074 L11.7528013,4.71159074 Z M11.7528013,7.04121061 L11.7528013,5.23510082 L6.20359448,5.23510082 L6.20359448,7.04121061 L11.7528013,7.04121061 Z M11.7528013,9.37083047 L11.7528013,7.56472069 L6.20359448,7.56472069 L6.20359448,9.37083047 L11.7528013,9.37083047 Z" id="Shape"/>
                        <path d="M33.1120127,0.235579537 C33.4784698,0.287930545 33.6616983,0.418808066 33.6616983,0.602036595 C33.6616983,0.863791636 33.3737678,1.07319567 32.8240822,1.2825997 L32.8240822,2.09404033 L38.7397461,2.09404033 L39.8652928,1.20407319 L41.2525945,2.17256684 C41.435823,2.27726886 41.5143495,2.43432188 41.5143495,2.61755041 C41.5143495,2.77460344 41.383472,2.87930545 41.121717,2.93165646 L40.5982069,3.08870949 C40.1008723,3.53369306 39.4203092,4.00485213 38.5826931,4.50218671 L38.111534,4.34513368 C38.4518156,3.71692158 38.7135706,3.14106049 38.8967991,2.61755041 L25.5211165,2.61755041 C25.4164145,3.53369306 25.233186,4.18808066 24.9976064,4.58071322 C24.7358514,5.05187229 24.4217453,5.26127633 24.1076393,5.26127633 C23.5579537,5.26127633 23.2700232,4.99952129 23.2700232,4.50218671 C23.2700232,4.29278268 23.3485497,4.08337864 23.5317782,3.87397461 C23.7935332,3.61221957 24.0029373,3.32428902 24.2385168,3.03635848 C24.5002719,2.64372592 24.7882024,1.98933831 25.128484,1.12554668 L25.599643,1.20407319 C25.5734675,1.54435474 25.5734675,1.83228529 25.5734675,2.09404033 L31.2273764,2.09404033 L31.2273764,1.20407319 C31.2273764,1.02084466 31.2012009,0.628212099 31.1488499,0.0261755041 L33.1120127,0.235579537 Z M26.8298917,10.7843077 L37.3262689,10.7843077 L38.216236,9.89434056 L39.3417827,10.8104832 C39.5250112,10.9413607 39.6558887,11.0722382 39.6558887,11.1769403 C39.6558887,11.3078178 39.5773622,11.4125198 39.4726602,11.4648708 L39.0015011,11.7004503 L39.0015011,15.3650209 L39.0800276,17.0140777 C39.0800276,17.1711307 38.9753256,17.3020082 38.8182726,17.4067102 C38.6612196,17.5375878 38.4779911,17.6161143 38.2424115,17.6161143 C37.7450769,17.6161143 37.4833219,17.4852368 37.4833219,17.2234817 L37.4833219,16.5429186 L26.8298917,16.5429186 L26.8298917,17.0140777 C26.8298917,17.2496572 26.7251897,17.4067102 26.5157857,17.4852368 C26.2802061,17.6161143 26.0446266,17.6946408 25.8090471,17.6946408 C25.4687655,17.6946408 25.285537,17.5114123 25.2593615,17.1449552 L25.337888,15.2864944 L25.337888,11.2554668 C25.337888,10.6010792 25.285537,10.1560956 25.180835,9.97286707 L26.8298917,10.7843077 Z M28.2695444,4.18808066 L35.3107551,4.18808066 L36.3577752,3.01018297 L37.7712524,4.05720314 C37.9283055,4.18808066 38.006832,4.31895818 38.006832,4.4498357 C38.006832,4.65923973 37.90213,4.76394175 37.7189014,4.76394175 L28.2695444,4.76394175 C27.5628058,4.76394175 26.8560672,4.81629276 26.1493286,4.92099477 L25.7828716,4.03102763 C26.5943122,4.13572965 27.4319283,4.18808066 28.2695444,4.18808066 Z M28.400422,6.15124347 L35.6772121,6.15124347 L36.5148282,5.31362734 L37.6403749,6.17741897 C37.8236035,6.30829649 37.954481,6.43917401 37.954481,6.51770053 C37.954481,6.64857805 37.8759545,6.75328006 37.7712524,6.80563107 L37.3000934,7.04121061 L37.3000934,7.80030023 L37.3786199,9.44935699 C37.3786199,9.60641001 37.2739179,9.71111203 37.1168648,9.78963854 C36.9598118,9.89434056 36.7765833,9.97286707 36.5410037,9.97286707 C36.0698447,9.97286707 35.8604406,9.86816505 35.8604406,9.60641001 L35.8604406,9.21377745 L28.4265975,9.21377745 L28.4265975,9.37083047 C28.4265975,9.58023451 28.3218955,9.71111203 28.0863159,9.78963854 C27.8507364,9.89434056 27.6151568,9.97286707 27.3795773,9.97286707 C27.0916468,9.97286707 26.9345937,9.84198955 26.9084182,9.5278835 L26.9869447,7.72177371 L26.9869447,6.59622704 C26.9869447,5.99419044 26.9345937,5.60155788 26.8298917,5.41832935 L28.400422,6.15124347 Z M31.3582539,13.3495071 L31.3582539,11.3339933 L26.8560672,11.3339933 L26.8560672,13.3495071 L31.3582539,13.3495071 Z M31.3582539,16.045584 L31.3582539,13.8468417 L26.8560672,13.8468417 L26.8560672,16.045584 L31.3582539,16.045584 Z M35.8342651,8.69026737 L35.8342651,6.64857805 L28.400422,6.64857805 L28.400422,8.69026737 L35.8342651,8.69026737 Z M32.7717312,13.3495071 L37.4833219,13.3495071 L37.4833219,11.3339933 L32.7717312,11.3339933 L32.7717312,13.3495071 Z M37.4833219,16.045584 L37.4833219,13.8468417 L32.7717312,13.8468417 L32.7717312,16.045584 L37.4833219,16.045584 Z" id="Shape"/>
                        <path d="M48.6602622,9.21377745 L48.8696662,9.21377745 L49.5502293,8.40233682 L50.728127,9.26612846 C50.88518,9.37083047 50.9637065,9.501708 50.9637065,9.60641001 C50.9637065,9.73728753 50.88518,9.84198955 50.7543025,9.89434056 L50.2831434,10.2084466 L50.2831434,13.5065601 C50.5187229,14.1609477 50.937531,14.6321068 51.5657431,14.9462129 C52.3248327,15.2864944 53.3980284,15.4435474 54.7329791,15.4435474 L64.3655646,15.3650209 L64.2085116,15.888531 C63.9991076,15.888531 63.763528,15.9670575 63.501773,16.1241105 C63.292369,16.2288126 63.1353159,16.5952696 63.0306139,17.1711307 C57.7431621,17.1711307 54.5759261,17.0664287 53.5289059,16.9093757 C52.1939552,16.6737961 51.2778126,16.2549881 50.728127,15.6529515 C50.3093189,15.3126699 49.9690374,14.7368088 49.6811068,14.0038947 L47.717944,16.2549881 L47.665593,16.8046736 C47.6394175,17.0402532 47.5347155,17.1711307 47.351487,17.1711307 C47.2206094,17.1711307 47.0897319,17.0664287 47.0112054,16.8308491 L46.3306423,15.3126699 C47.0897319,15.0509149 47.9535235,14.5535803 48.8958417,13.8730172 L48.8958417,9.73728753 L48.6602622,9.73728753 C47.9535235,9.73728753 47.2467849,9.78963854 46.5400463,9.89434056 L46.1735893,8.97819791 C47.0112054,9.13525094 47.822646,9.21377745 48.6602622,9.21377745 Z M49.3931763,5.41832935 C49.8905108,5.75861091 50.1522659,6.15124347 50.1522659,6.57005153 C50.1522659,7.06738611 49.8905108,7.32914115 49.3931763,7.32914115 C49.2884743,7.32914115 49.1837722,7.22443914 49.0528947,7.0150351 C48.5032091,6.30829649 47.8488215,5.54920687 47.0112054,4.79011725 L47.2467849,4.4760112 C48.1629276,4.76394175 48.8696662,5.0780478 49.3931763,5.41832935 Z M50.7543025,1.9108118 C51.3039881,2.30344436 51.5919186,2.69607692 51.5919186,3.167236 C51.5919186,3.66457058 51.3039881,3.92632562 50.7543025,3.92632562 C50.6496005,3.92632562 50.5187229,3.8216236 50.3878454,3.61221957 C49.8119843,2.87930545 49.0528947,2.12021583 48.1367521,1.30877521 L48.3461561,0.942318148 C49.3670008,1.17789769 50.1784414,1.51817924 50.7543025,1.9108118 Z M54.5235751,0.968493652 L60.6748185,0.968493652 L61.5124347,0.130877521 L62.7165079,1.36112621 C62.8997364,1.54435474 63.0044384,1.67523226 63.0044384,1.77993428 C63.0044384,1.98933831 62.8735609,2.09404033 62.6379814,2.09404033 L62.0359448,2.09404033 C60.9627491,2.74842793 59.9157289,3.27193801 58.9210598,3.63839507 C59.2351658,3.84779911 59.3922188,4.08337864 59.3922188,4.31895818 C59.3922188,4.81629276 59.1042883,5.0780478 58.5546027,5.0780478 C58.4237252,5.0780478 58.2404967,4.99952129 58.0310926,4.81629276 C57.219652,4.18808066 56.1988073,3.53369306 54.8900321,2.82695444 L55.1256117,2.46049739 C56.4605624,2.72225243 57.5075825,3.01018297 58.2928477,3.29811352 C59.0519373,2.74842793 59.7586759,2.12021583 60.3607125,1.46582823 L54.5235751,1.46582823 C53.8168365,1.46582823 53.1100979,1.51817924 52.4033592,1.62288126 L52.0369022,0.706738611 C52.8483428,0.88996714 53.6859589,0.968493652 54.5235751,0.968493652 Z M54.0785915,5.15657431 L61.7741897,5.15657431 L62.4547528,4.31895818 L63.6326505,5.18274982 C63.7897035,5.28745183 63.86823,5.41832935 63.86823,5.52303137 C63.86823,5.65390889 63.7897035,5.75861091 63.658826,5.81096191 L63.1876669,6.12506796 L63.1876669,13.2448051 C63.1876669,13.8468417 62.8735609,14.3180008 62.2976998,14.6844578 C61.7741897,14.9985639 61.3292061,15.1294414 60.9103981,15.1294414 C60.9103981,14.6844578 60.8580471,14.3703518 60.7795206,14.2394742 C60.6748185,14.1085967 60.177484,13.9253682 59.3398678,13.7159642 L59.3398678,13.3495071 L61.2245041,13.3495071 C61.5647857,13.3495071 61.7480142,13.2448051 61.7480142,12.9568745 L61.7480142,11.1769403 L58.5284272,11.1769403 L58.5284272,14.2394742 C58.5284272,14.4750538 58.3975497,14.6321068 58.1619702,14.7629843 C57.9263906,14.8676863 57.6908111,14.9200373 57.481407,14.9200373 C57.1934765,14.9200373 57.0364235,14.7891598 57.010248,14.4750538 L57.0887745,12.511891 L57.0887745,11.1769403 L54.0262405,11.1769403 L54.0262405,14.5274048 C54.0262405,14.7106333 53.9215385,14.8415108 53.6859589,14.9200373 C53.4503794,14.9723884 53.2147999,14.9985639 52.9792203,14.9985639 C52.6651143,14.9985639 52.5342368,14.8415108 52.5342368,14.5274048 L52.6127633,11.5433973 L52.6127633,5.62773339 C52.6127633,5.15657431 52.5604123,4.73776625 52.4557103,4.4236602 L54.0785915,5.15657431 Z M57.1411255,7.80030023 L57.1411255,5.7062599 L54.0785915,5.7062599 L54.0785915,7.80030023 L57.1411255,7.80030023 Z M57.1411255,10.6272547 L57.1411255,8.29763481 L54.0785915,8.29763481 L54.0785915,10.6272547 L57.1411255,10.6272547 Z M58.5546027,7.80030023 L61.7741897,7.80030023 L61.7741897,5.7062599 L58.5546027,5.7062599 L58.5546027,7.80030023 Z M58.5546027,10.6272547 L61.7741897,10.6272547 L61.7741897,8.29763481 L58.5546027,8.29763481 L58.5546027,10.6272547 Z" id="Shape"/>
                    </g>
                    <g id="Group" fill-rule="nonzero">
                        <g transform="translate(0.000000, 3.141060)" id="Shape">
                            <path d="M53.2147999,2.46049739 L41.0955415,2.46049739 L41.0955415,7.27679014 L51.9060247,7.27679014 C53.4503794,7.27679014 54.4973996,7.56472069 55.0732607,8.14058178 C55.6229463,8.71644287 55.9108768,9.78963854 55.9108768,11.3339933 L55.9108768,13.2709806 C55.9108768,14.8415108 55.6229463,15.9147065 55.0732607,16.4643921 C54.5235751,17.0402532 53.4765549,17.3020082 51.9060247,17.3020082 L41.9069821,17.3020082 C40.3626274,17.3020082 39.2894317,17.0140777 38.7397461,16.4643921 C38.163885,15.888531 37.90213,14.8415108 37.90213,13.2709806 L37.90213,12.6427685 L40.5720314,12.1716094 L40.5720314,14.9200373 L53.3195019,14.9200373 L53.3195019,9.78963854 L42.5613697,9.78963854 C41.0431905,9.78963854 39.9961703,9.501708 39.4203092,8.95202241 C38.8444481,8.37616132 38.5826931,7.32914115 38.5826931,5.7324354 L38.5826931,4.24043167 C38.5826931,2.64372592 38.8706236,1.57053025 39.4203092,1.02084466 C39.9961703,0.471159074 41.0431905,0.183228529 42.5613697,0.183228529 L51.6966206,0.183228529 C53.1624489,0.183228529 54.1832935,0.44498357 54.8115056,0.968493652 C55.4135422,1.49200373 55.7276483,2.46049739 55.7276483,3.90015011 L55.7276483,4.4236602 L53.2671509,4.97334578 L53.2671509,2.46049739 L53.2147999,2.46049739 Z" fill="#BF9D5A"/>
                            <polyline fill="#1F2839" points="2.98400747 8.2714593 2.98400747 2.5128484 16.4382166 2.5128484 16.4382166 0.183228529 0.130877521 0.183228529 0.130877521 17.3281837 2.98400747 17.3281837 2.98400747 8.08823077 2.98400747 10.4178506"/>
                            <g transform="translate(9.161426, 0.000000)" fill="#BF9D5A">
                                <path d="M9.47553249,10.6272547 L9.47553249,17.3281837 L12.3286624,17.3281837 L12.3286624,10.6534302 L17.3543592,10.6534302 L24.3432188,17.3281837 L28.5836505,17.3281837 L20.7309993,10.6534302 L23.2438477,10.6534302 C24.5002719,10.6534302 25.4164145,10.3916751 25.9922756,9.86816505 C26.5681367,9.34465497 26.8560672,8.50703884 26.8560672,7.32914115 L26.8560672,3.50751755 C26.8560672,2.32961987 26.5681367,1.49200373 25.9922756,0.968493652 C25.4164145,0.44498357 24.5002719,0.183228529 23.2438477,0.183228529 L9.47553249,0.183228529 L9.47553249,8.42851233 L9.47553249,10.6272547 Z M12.3286624,8.42851233 L12.3286624,2.40814638 L22.170652,2.40814638 C22.8512151,2.40814638 23.3485497,2.5390239 23.6103047,2.80077894 C23.8982353,3.06253398 24.0291128,3.50751755 24.0291128,4.18808066 L24.0291128,6.67475355 C24.0291128,7.35531666 23.8982353,7.82647573 23.6103047,8.06205527 C23.3223742,8.29763481 22.8512151,8.42851233 22.170652,8.42851233 L12.3286624,8.42851233 L12.3286624,8.42851233 Z"/>
                                <polyline points="9.5278835 8.40233682 0.104702016 8.42851233 0.104702016 10.6272547 9.5278835 10.6534302"/>
                            </g>
                        </g>
                        <g transform="translate(68.579821, 0.000000)">
                            <line x1="0.233632599" y1="0.235579537" x2="0.233632599" y2="23.5056027" id="Shape" fill="#BA9764"/>
                            <polygon id="Rectangle-path" fill="#BF9D5A" points="0.0389387665 0.235579537 0.817714096 0.235579537 0.817714096 23.5056027 0.0389387665 23.5056027"/>
                        </g>
                    </g>
                </g>
            </g>
        </g>
    </g>
</svg>