<svg xmlns="http://www.w3.org/2000/svg" width="160" height="26" viewBox="0 0 160 26">
    <g fill="none" fill-rule="nonzero">
        <g fill="#FFF">
            <path d="M93.069 6.097h1.358V4.792c0-.198-.028-.595-.085-1.219l1.953.284c.368.056.566.198.566.397 0 .255-.283.482-.82.652v1.22h5.998V4.82c0-.199-.028-.596-.056-1.22l1.924.284c.368.057.594.198.594.397 0 .255-.283.482-.82.652v1.22h1.698l1.131-1.305 1.529 1.134c.17.142.254.284.254.426 0 .226-.113.34-.311.34h-4.301v6.89h2.263l1.217-1.36 1.585 1.162c.17.17.255.312.255.454 0 .198-.114.312-.312.312h-6.197c.538.425 1.104.822 1.67 1.134.65.425 1.358.737 2.122 1.02.82.313 1.811.568 2.971.795l-.17.567c-.282 0-.509.028-.707.057-.198.085-.51.453-.82 1.162-.736-.283-1.5-.709-2.293-1.276-.82-.51-1.528-1.162-2.207-1.9-.424-.397-.849-.907-1.273-1.53H97.2a14.88 14.88 0 0 1-1.924 2.154c-.82.738-1.754 1.39-2.801 1.9-.878.454-1.755.85-2.66 1.163l-.34-.397a11.967 11.967 0 0 0 1.924-1.05 12.276 12.276 0 0 0 2.32-1.956 11.064 11.064 0 0 0 1.444-1.787H92.22c-.764 0-1.528.057-2.292.17l-.396-.992c.877.17 1.754.255 2.688.255h2.179v-7.06h-1.358c-.764 0-1.528.056-2.292.17l-.397-.993a12.82 12.82 0 0 0 2.717.284zM97.2 17.865h1.217v-1.446c0-.199-.028-.596-.085-1.22l1.925.284c.367.057.594.17.594.368 0 .256-.283.483-.82.653v1.36h1.442l1.132-1.219 1.444 1.05c.17.141.254.283.254.425 0 .198-.113.312-.34.312h-3.961v3.006h5.263l1.217-1.39 1.585 1.191c.17.142.283.284.283.454 0 .198-.113.312-.34.312H93.182c-.764 0-1.528.057-2.292.17l-.396-.964c.877.17 1.754.255 2.688.255h5.179v-3.062h-1.217c-.764 0-1.528.056-2.264.17l-.424-.993c.962.199 1.867.284 2.744.284zm4.868-9.358V6.635h-6v1.872h6zm0 2.524V9.074h-6v1.957h6zm0 2.524v-1.957h-6v1.957h6zM125.159 3.658c.396.057.594.199.594.397 0 .284-.311.51-.906.737v.88h6.396l1.217-.965 1.5 1.05a.527.527 0 0 1 .282.481c0 .17-.141.284-.424.34l-.566.17c-.538.483-1.274.993-2.179 1.532l-.51-.17c.368-.68.651-1.304.85-1.872h-14.46c-.114.993-.312 1.702-.567 2.127-.283.51-.622.738-.962.738-.594 0-.905-.284-.905-.823 0-.227.085-.454.283-.68.283-.284.51-.596.764-.908.283-.425.594-1.134.962-2.07l.51.085c-.03.369-.03.68-.03.964h6.113v-.964c0-.198-.028-.624-.085-1.276l2.123.227zm-6.792 11.428h11.348l.962-.964 1.217.992c.198.142.34.284.34.397a.349.349 0 0 1-.199.312l-.51.255v3.97l.086 1.787c0 .17-.114.312-.283.425a.931.931 0 0 1-.623.227c-.538 0-.82-.142-.82-.425v-.738h-11.518v.51c0 .256-.113.426-.34.511-.254.142-.509.227-.763.227-.368 0-.566-.198-.595-.595l.085-2.014v-4.367c0-.709-.056-1.19-.17-1.39l1.783.88zm1.557-7.146h7.612l1.132-1.276 1.528 1.134c.17.142.254.284.254.425 0 .227-.113.34-.31.34h-10.216c-.764 0-1.528.057-2.293.17l-.396-.963c.878.113 1.783.17 2.689.17zm.141 2.127h7.867l.905-.908 1.217.936c.198.142.34.284.34.369a.349.349 0 0 1-.198.312l-.51.255v.822l.085 1.787c0 .17-.113.283-.283.368-.17.114-.368.199-.622.199-.51 0-.736-.114-.736-.397v-.426h-8.037v.17c0 .227-.113.37-.367.454-.255.114-.51.199-.765.199-.31 0-.48-.142-.509-.482l.085-1.957v-1.22c0-.651-.057-1.077-.17-1.275l1.698.794zm3.198 7.798V15.68h-4.867v2.184h4.867zm0 2.92v-2.381h-4.867v2.382h4.867zm4.839-7.968v-2.212h-8.037v2.212h8.037zm-3.311 5.048h5.093V15.68h-5.093v2.184zm5.093 2.92v-2.381h-5.093v2.382h5.093zM141.968 13.384h.226l.736-.879 1.273.936c.17.114.255.255.255.369 0 .142-.085.255-.227.312l-.509.34v3.573c.255.709.708 1.22 1.387 1.56.82.368 1.98.538 3.424.538l10.413-.085-.17.567c-.226 0-.48.085-.763.256-.227.113-.397.51-.51 1.134-5.716 0-9.14-.114-10.272-.284-1.443-.255-2.434-.709-3.028-1.36-.453-.37-.82-.993-1.132-1.787l-2.122 2.438-.057.596c-.028.255-.141.397-.34.397-.14 0-.282-.114-.367-.369l-.736-1.644c.82-.284 1.755-.823 2.773-1.56v-4.48h-.254c-.764 0-1.528.056-2.292.17l-.397-.993c.906.17 1.783.255 2.689.255zm.792-4.111c.538.368.82.794.82 1.247 0 .54-.282.823-.82.823-.113 0-.226-.114-.368-.34a18.59 18.59 0 0 0-2.207-2.41l.255-.341c.99.312 1.754.652 2.32 1.02zm1.471-3.8c.595.425.906.85.906 1.361 0 .539-.311.822-.906.822-.113 0-.254-.113-.396-.34-.622-.794-1.443-1.616-2.433-2.495l.226-.397c1.104.255 1.98.624 2.603 1.049zm4.075-1.021h6.65l.906-.907 1.302 1.332c.198.199.31.34.31.454 0 .227-.14.34-.395.34h-.651c-1.16.71-2.292 1.276-3.368 1.673.34.227.51.482.51.738 0 .538-.312.822-.906.822-.141 0-.34-.085-.566-.284-.877-.68-1.98-1.389-3.395-2.155l.254-.397c1.443.284 2.575.596 3.424.908a15.116 15.116 0 0 0 2.236-1.985h-6.31c-.765 0-1.529.057-2.293.17l-.396-.993c.877.199 1.783.284 2.688.284zm-.48 4.537h8.319l.736-.907 1.273.935c.17.114.255.256.255.37 0 .14-.085.254-.227.311l-.51.34v7.713c0 .653-.339 1.163-.961 1.56-.566.34-1.047.482-1.5.482 0-.482-.057-.822-.141-.964-.114-.142-.651-.34-1.557-.567v-.397h2.038c.367 0 .566-.114.566-.426v-1.928h-3.481v3.318c0 .255-.142.425-.396.567a1.84 1.84 0 0 1-.736.17c-.311 0-.481-.142-.51-.482l.086-2.127v-1.446h-3.311v3.63c0 .198-.114.34-.368.425-.255.057-.51.085-.764.085-.34 0-.481-.17-.481-.51l.085-3.233V9.5c0-.51-.057-.965-.17-1.305l1.754.794zm3.31 2.864V9.585h-3.31v2.268h3.31zm0 3.063v-2.524h-3.31v2.524h3.31zm1.528-3.063h3.48V9.585h-3.48v2.268zm0 3.063h3.48v-2.524h-3.48v2.524z"/>
        </g>
        <path fill="#BF9D5A" d="M58.32 6.068H45.216v5.218h11.687c1.67 0 2.802.312 3.424.936.595.624.906 1.786.906 3.46v2.098c0 1.701-.311 2.864-.906 3.46-.594.623-1.726.907-3.424.907h-10.81c-1.669 0-2.83-.312-3.423-.908-.623-.624-.906-1.758-.906-3.46v-.68l2.886-.51v2.977h13.781v-5.558h-11.63c-1.641 0-2.773-.312-3.396-.907-.622-.624-.905-1.758-.905-3.488V7.997c0-1.73.311-2.893.905-3.488.623-.596 1.755-.908 3.396-.908h9.876c1.585 0 2.688.284 3.367.851.651.567.99 1.616.99 3.176v.567l-2.66.596V6.068h-.056z"/>
        <path fill="#FFF" d="M4.016 12.364V6.125H18.56V3.601H.93v18.574h3.085v-10.01 2.524"/>
        <g fill="#BF9D5A">
            <path d="M20.938 14.916v7.259h3.084v-7.231h5.433l7.556 7.231h4.584l-8.49-7.231h2.717c1.359 0 2.35-.284 2.972-.85.622-.568.934-1.475.934-2.751v-4.14c0-1.276-.312-2.184-.934-2.751-.623-.567-1.613-.85-2.972-.85H20.938v11.314zm3.084-2.382V6.012h10.64c.736 0 1.274.141 1.557.425.31.284.452.766.452 1.503v2.694c0 .737-.141 1.247-.452 1.503-.312.255-.821.397-1.557.397h-10.64z"/>
            <path d="M20.994 12.505l-10.187.029v2.382l10.187.028"/>
        </g>
        <g>
            <path fill="#BA9764" d="M75.183.255v25.209"/>
            <path fill="#FFF" d="M74.972.255h.842v25.21h-.842z"/>
        </g>
    </g>
</svg>