<svg xmlns="http://www.w3.org/2000/svg" xmlns:xlink="http://www.w3.org/1999/xlink" width="40px" height="40px" viewBox="0 0 40 40" version="1.1">
    <!-- Generator: Sketch 63.1 (92452) - https://sketch.com -->
    <title>Icon/Product/40/Prize</title>
    <desc>Created with Sketch.</desc>
    <g id="Icon/Product/40/Prize" stroke="none" stroke-width="1" fill="none" fill-rule="evenodd">
        <g id="Medal,-Prize,-Reward.5">
            <polygon id="Path" points="0 0 40 0 40 40 0 40"/>
            <g id="Group" stroke-linecap="round" stroke-linejoin="round" transform="translate(5.769231, 3.333333)" stroke-width="3">
                <line x1="14.2307692" y1="33.3333333" x2="14.2307692" y2="31.6666667" id="Path" stroke="#1C5E75"/>
                <line x1="3.71410256" y1="30.5166667" x2="4.7474359" y2="29.4833333" id="Path" stroke="#CC9900"/>
                <line x1="26.7307692" y1="20" x2="28.3974359" y2="20" id="Path" stroke="#1C5E75"/>
                <line x1="0.0641025641" y1="20" x2="1.73076923" y2="20" id="Path" stroke="#1C5E75"/>
                <line x1="23.7141026" y1="29.4833333" x2="24.7474359" y2="30.5166667" id="Path" stroke="#CC9900"/>
                <line x1="21.6141026" y1="6.66666667" x2="6.8474359" y2="6.66666667" id="Path" stroke="#1C5E75"/>
                <path d="M20.3574359,16.7966667 L26.7174359,9.66666667 C27.2624359,9.05666667 27.5641026,8.26666667 27.5641026,7.44833333 L27.5641026,3.33333333 C27.5641026,1.5 26.0641026,0 24.2307692,0 L4.23076923,0 C2.38910256,0 0.897435897,1.49166667 0.897435897,3.33333333 L0.897435897,7.44833333 C0.897435897,8.26666667 1.19910256,9.05666667 1.74410256,9.66666667 L8.10410256,16.7966667" id="Path" stroke="#1C5E75"/>
                <line x1="1.8474359" y1="1.05" x2="12.6974359" y2="13.2333333" id="Path" stroke="#1C5E75"/>
                <line x1="26.6141026" y1="1.05" x2="15.7641026" y2="13.2333333" id="Path" stroke="#1C5E75"/>
                <path d="M19.1416026,15.0891667 C21.8537859,17.80135 21.8537859,22.1986833 19.1416026,24.9108833 C16.4294192,27.6230667 12.0320859,27.6230667 9.3198859,24.9108833 C6.60770256,22.1987 6.60770256,17.8013667 9.3198859,15.0891667 C12.0320692,12.3769833 16.4294026,12.3769833 19.1416026,15.0891667" id="Path" stroke="#CC9900" fill="#FCEBB6"/>
            </g>
        </g>
    </g>
</svg>