<svg xmlns="http://www.w3.org/2000/svg" xmlns:xlink="http://www.w3.org/1999/xlink" width="40px" height="40px" viewBox="0 0 40 40" version="1.1">
    <!-- Generator: Sketch 63.1 (92452) - https://sketch.com -->
    <title>Icon/Product/40/Hat</title>
    <desc>Created with Sketch.</desc>
    <g id="Icon/Product/40/Hat" stroke="none" stroke-width="1" fill="none" fill-rule="evenodd">
        <g id="Group" transform="translate(2.000000, 7.000000)" stroke-width="3">
            <path d="M7.61517698,14.8304446 C3.00785862,15.8364627 0,17.4939223 0,19.3681841 C0,22.4360667 8.0588745,24.9230769 18,24.9230769 C27.9411255,24.9230769 36,22.4360667 36,19.3681841 C36,17.4553923 32.8672025,15.7684081 28.0986634,14.7692308" id="Path" stroke="#1C5E75"/>
            <path d="M13.6567802,4.23645443 C15.5534518,5.09923831 17.7654133,4.89145901 19.468234,3.69055894 L20.7101354,2.8147183 C22.2385009,1.73685128 24.3512698,2.10205246 25.4291368,3.63041796 C25.6628327,3.96178785 25.835114,4.33243646 25.9377762,4.72471217 L28.8164756,15.7243235 C29.0820594,16.7391084 28.5184961,17.7866575 27.5253496,18.1242712 C25.0536753,18.9645006 21.9859882,19.3846154 18.3222882,19.3846154 C14.6227815,19.3846154 11.5309947,18.9562486 9.0469278,18.0995152 C8.08692298,17.768393 7.52743426,16.7703986 7.74584539,15.7786589 L9.87101457,6.12889986 C10.1943754,4.66061466 11.6467916,3.7324701 13.1150768,4.05583097 C13.3014773,4.09688202 13.4830438,4.15742281 13.6567802,4.23645443 Z" id="Rectangle" stroke="#1C5E75"/>
            <path d="M8.16005859,12.9230769 C11.7186335,14.0103133 15.1524601,14.5345057 18.4615385,14.4956543 C21.7706168,14.4568029 24.9781434,13.9326104 28.0841182,12.9230769 L29.5384615,17.734316 C26.2654898,18.8345156 22.5731821,19.3846154 18.4615385,19.3846154 C14.3498948,19.3846154 10.6575871,18.8345156 7.38461538,17.734316 L8.16005859,12.9230769 Z" id="Rectangle" stroke="#CC9900" fill="#FCEBB6" stroke-linejoin="round"/>
        </g>
    </g>
</svg>