<svg xmlns="http://www.w3.org/2000/svg" width="18" height="18" viewBox="0 0 18 18">
    <g fill="none" fill-rule="evenodd">
        <path d="M-3-3h24v24H-3z"/>
        <path stroke="#C90" stroke-linecap="round" stroke-linejoin="round" stroke-width="1.5" d="M7.856 10.144a12.634 12.634 0 0 1-2.638-3.809.749.749 0 0 1 .166-.827l.819-.818c.671-.671.671-1.62.085-2.206L5.114 1.31a2 2 0 0 0-2.828 0l-.652.652c-.741.741-1.05 1.81-.85 2.87.494 2.613 2.012 5.474 4.461 7.923 2.449 2.449 5.31 3.967 7.923 4.461 1.06.2 2.129-.109 2.87-.85l.651-.651a2 2 0 0 0 0-2.828l-1.173-1.173a1.5 1.5 0 0 0-2.121 0l-.903.904a.749.749 0 0 1-.827.166 12.66 12.66 0 0 1-3.809-2.64z"/>
    </g>
</svg>