<svg xmlns="http://www.w3.org/2000/svg" xmlns:xlink="http://www.w3.org/1999/xlink" width="40px" height="40px" viewBox="0 0 40 40" version="1.1">
    <!-- Generator: Sketch 63.1 (92452) - https://sketch.com -->
    <title>Icon/Product/40/Select</title>
    <desc>Created with Sketch.</desc>
    <g id="Icon/Product/40/Select" stroke="none" stroke-width="1" fill="none" fill-rule="evenodd">
        <g id="Cursor,-Select,-Checkbox">
            <polygon id="Path" points="0 0 40 0 40 40 0 40"/>
            <path d="M10.6666667,33.6666667 L10.6666667,33.6666667 C7.90541667,33.6666667 5.66666667,31.4279167 5.66666667,28.6666667 L5.66666667,28.6666667 C5.66666667,25.9054167 7.90541667,23.6666667 10.6666667,23.6666667 L10.6666667,23.6666667 C13.4279167,23.6666667 15.6666667,25.9054167 15.6666667,28.6666667 L15.6666667,28.6666667 C15.6666667,31.4279167 13.4279167,33.6666667 10.6666667,33.6666667 Z" id="Path" stroke="#1C5E75" stroke-width="3" stroke-linecap="round" stroke-linejoin="round"/>
            <path d="M28.6666667,15.6666667 L28.6666667,15.6666667 C25.9054167,15.6666667 23.6666667,13.4279167 23.6666667,10.6666667 L23.6666667,10.6666667 C23.6666667,7.90541667 25.9054167,5.66666667 28.6666667,5.66666667 L28.6666667,5.66666667 C31.4279167,5.66666667 33.6666667,7.90541667 33.6666667,10.6666667 L33.6666667,10.6666667 C33.6666667,13.4279167 31.4279167,15.6666667 28.6666667,15.6666667 Z" id="Path" stroke="#1C5E75" stroke-width="3" stroke-linecap="round" stroke-linejoin="round"/>
            <path d="M25.3574103,34.260806 L22.0640769,23.740806 C21.7157436,22.630806 22.8524103,21.6374726 23.9074103,22.1291393 L33.7290769,26.7124726 C34.8924103,27.255806 34.6974103,28.9674726 33.4407436,29.2341393 L29.3974103,30.0891393 L27.8974103,34.3074726 C27.4657436,35.5191393 25.7424103,35.4874726 25.3574103,34.260806 L25.3574103,34.260806 Z" id="Path" stroke="#1C5E75" stroke-width="3" stroke-linecap="round" stroke-linejoin="round"/>
            <path d="M10.6666667,17.3333333 L10.6666667,17.3333333 C6.985,17.3333333 4,14.3483333 4,10.6666667 L4,10.6666667 C4,6.985 6.985,4 10.6666667,4 L10.6666667,4 C14.3483333,4 17.3333333,6.985 17.3333333,10.6666667 L17.3333333,10.6666667 C17.3333333,14.3483333 14.3483333,17.3333333 10.6666667,17.3333333 Z" id="Path" stroke="#CC9900" stroke-width="3" fill="#FCEBB5" stroke-linecap="round" stroke-linejoin="round"/>
        </g>
    </g>
</svg>