<svg xmlns="http://www.w3.org/2000/svg" width="24" height="24" viewBox="0 0 24 24">
    <g fill="none" fill-rule="evenodd">
        <circle cx="12" cy="12" r="12" fill="#A2A9AF"/>
        <path fill="#1E2738" d="M10.555 13.812l3.78-1.953-3.78-1.976v3.93zM12 7.078c2.945 0 4.898.14 4.898.14.274.032.875.032 1.407.594 0 0 .43.422.554 1.391.149 1.133.141 2.266.141 2.266v1.062s.008 1.133-.14 2.266c-.126.96-.555 1.39-.555 1.39-.532.555-1.133.555-1.407.586 0 0-1.953.149-4.898.149-3.64-.031-4.758-.14-4.758-.14-.312-.055-1.015-.04-1.547-.595 0 0-.43-.43-.554-1.39C4.992 13.664 5 12.53 5 12.53V11.47s-.008-1.133.14-2.266c.126-.969.555-1.39.555-1.39.532-.563 1.133-.563 1.407-.594 0 0 1.953-.14 4.898-.14z"/>
    </g>
</svg>