<svg xmlns="http://www.w3.org/2000/svg" width="20" height="16" viewBox="0 0 20 16">
    <g fill="none" fill-rule="evenodd">
        <path d="M-2-4h24v24H-2z"/>
        <g stroke="#C90" stroke-linecap="round" stroke-linejoin="round" stroke-width="1.5">
            <path d="M16.786 15H3.214A2.214 2.214 0 0 1 1 12.786V3.214C1 1.991 1.991 1 3.214 1h13.573C18.009 1 19 1.991 19 3.214v9.573A2.213 2.213 0 0 1 16.786 15z"/>
            <path d="M1 3l7.687 5.802a2.5 2.5 0 0 0 3.062-.038L19 3M12.86 7.88l6.12 5.1M1.02 12.98L7.3 7.75"/>
        </g>
    </g>
</svg>