<svg xmlns="http://www.w3.org/2000/svg" width="24" height="24" viewBox="0 0 24 24">
    <g fill="none" fill-rule="evenodd">
        <circle cx="12" cy="12" r="12" fill="#A2A9AF"/>
        <path fill="#1E2738" fill-rule="nonzero" d="M16.676 16.776c.317 0 .588-.117.812-.35.224-.233.336-.509.336-.826v-7c0-.317-.112-.593-.336-.826-.224-.233-.495-.35-.812-.35H7.324c-.317 0-.588.117-.812.35-.224.233-.336.509-.336.826v7c0 .317.112.593.336.826.224.233.495.35.812.35h9.352zM12 12.674L7.324 9.776V8.6L12 11.526 16.676 8.6v1.176L12 12.674z"/>
    </g>
</svg>